# 3ds Max Wavefront OBJ Exporter v0.97b - (c)2007 guruware
# File Created: 19.05.2016 19:56:18

mtllib Palm.mtl

#
# object Palm
#

v  -0.2125 0.2366 -0.1821
v  -0.3501 0.2366 -0.3001
v  -0.4479 0.2366 0.0330
v  -0.2718 0.2366 0.0200
v  0.0000 -0.2634 0.2500
v  0.0000 -0.2634 -0.0000
v  0.2500 -0.2634 0.2500
v  -0.0238 0.2366 0.3787
v  0.3132 0.2366 0.2978
v  0.0000 0.2366 -0.4202
v  0.0000 -0.2634 -0.2500
v  -0.2500 -0.2634 -0.2500
v  -0.3003 0.2366 0.2915
v  -0.1823 0.2366 0.1769
v  0.0000 0.2366 -0.2551
v  -0.0144 0.2366 0.2298
v  0.2500 -0.2634 -0.0000
v  0.2500 -0.2634 -0.2500
v  0.2789 0.2366 -0.2702
v  0.4162 0.2366 -0.0000
v  -0.2500 -0.2634 0.2500
v  0.1901 0.2366 0.1807
v  -0.2500 -0.2634 -0.0000
v  0.2526 0.2366 -0.0000
v  0.1693 0.2366 -0.1640
v  -0.2434 0.8286 -0.1998
v  -0.4166 0.8286 0.0282
v  -0.2538 0.8286 0.0172
v  -0.1483 0.8286 -0.1217
v  -0.2120 0.8286 0.3015
v  -0.1291 0.8286 0.1837
v  -0.0907 0.8286 -0.2272
v  -0.1489 0.8286 -0.3730
v  0.1221 0.8286 0.3635
v  0.0744 0.8286 0.2214
v  0.3370 0.8286 0.1540
v  0.2053 0.8286 0.0938
v  0.3372 0.8286 -0.0846
v  0.2054 0.8286 -0.0515
v  0.2454 0.8286 -0.3467
v  0.1495 0.8286 -0.2112
v  -0.3152 1.4717 -0.2149
v  -0.4262 1.4717 0.0013
v  -0.2195 1.4717 0.0007
v  -0.1623 1.4717 -0.1107
v  -0.2253 1.4717 0.2422
v  -0.1161 1.4717 0.1248
v  -0.1445 1.4717 -0.3504
v  -0.0744 1.4717 -0.1805
v  0.0774 1.4717 0.3839
v  0.0398 1.4717 0.1977
v  0.2749 1.4717 0.1826
v  0.1416 1.4717 0.0941
v  0.3730 1.4717 -0.0148
v  0.1921 1.4717 -0.0076
v  0.2596 1.4717 -0.3830
v  0.1337 1.4717 -0.1973
v  -0.2309 2.5766 -0.1969
v  -0.3151 2.5766 0.0007
v  -0.2100 2.5766 0.0005
v  -0.1539 2.5766 -0.1313
v  -0.2188 2.5766 0.1663
v  -0.1459 2.5766 0.1108
v  -0.0457 2.5766 -0.2810
v  -0.0305 2.5766 -0.1873
v  -0.0222 2.5766 0.2973
v  -0.0148 2.5766 0.1982
v  0.2083 2.5766 0.2240
v  0.1389 2.5766 0.1493
v  0.2974 2.5766 0.0167
v  0.1983 2.5766 0.0111
v  0.2158 2.5766 -0.2425
v  0.1439 2.5766 -0.1616
v  -0.2031 3.5183 -0.1524
v  -0.2815 3.5183 0.0291
v  -0.1421 3.5183 0.0147
v  -0.1025 3.5183 -0.0769
v  -0.1459 3.5183 0.1108
v  -0.0736 3.5183 0.0559
v  -0.0598 3.5183 -0.1637
v  -0.1184 3.5183 -0.3243
v  -0.0185 3.5183 0.2788
v  -0.0093 3.5183 0.1407
v  0.1717 3.5183 0.2621
v  0.0867 3.5183 0.1323
v  0.2834 3.5183 -0.0873
v  0.1430 3.5183 -0.0440
v  0.1439 3.5183 -0.1616
v  0.0726 3.5183 -0.0816
v  -0.2572 4.7307 0.0860
v  -0.2109 4.7307 -0.0843
v  0.0000 4.7307 -0.0000
v  -0.1353 4.7307 0.2930
v  -0.1188 4.7307 -0.2112
v  0.0222 4.7307 0.3191
v  0.1760 4.7307 0.3206
v  0.2903 4.7307 -0.0440
v  0.0927 4.7307 -0.2548
v  0.4961 4.8173 0.3060
v  0.4390 5.1151 -0.7587
v  -0.4278 5.1151 -0.7766
v  -0.4961 4.8173 0.3060
v  -0.4747 5.0480 -1.7817
v  0.5393 5.0991 -1.7930
v  0.4263 4.8173 -2.6676
v  -0.4263 4.8173 -2.6676
v  0.4603 4.4810 -3.2086
v  -0.4603 4.4810 -3.2086
v  0.5662 4.9536 -0.4069
v  -0.3551 5.2514 -0.9065
v  -0.7524 5.2514 0.1449
v  0.1642 4.9536 0.5001
v  -1.7738 5.3255 -0.4103
v  -1.3246 5.1944 -1.2522
v  -2.1806 4.9536 -1.5481
v  -2.5260 4.9536 -0.7687
v  -2.6614 4.6173 -1.7984
v  -3.0344 4.6173 -0.9568
v  -0.1617 4.9536 -0.6195
v  -0.7250 5.2514 0.2120
v  -0.0105 5.2514 0.5831
v  0.6287 4.9536 -0.0199
v  -0.5466 5.1944 1.4587
v  -1.3974 5.3149 0.7569
v  -1.8536 4.9536 1.5808
v  -1.1744 4.9536 2.0961
v  -2.2076 4.6173 1.9913
v  -1.5795 4.6173 2.4775
v  -0.6495 4.9536 -0.1892
v  -0.0954 5.2514 0.4778
v  0.5597 5.2514 -0.1069
v  0.0906 4.9536 -0.8499
v  1.1901 5.3172 0.6734
v  0.4155 5.0733 1.4041
v  1.1853 4.9536 1.8934
v  1.8214 4.9536 1.3257
v  1.5203 4.6173 2.3196
v  2.2070 4.6173 1.7066
v  -0.1818 4.9536 0.6469
v  0.5061 5.2514 0.1187
v  -0.1309 5.2514 -0.6361
v  -0.8135 4.9536 -0.1181
v  0.6879 5.2817 -1.2979
v  1.3147 5.1944 -0.4331
v  1.9698 4.9536 -1.1066
v  1.4269 4.9536 -1.7640
v  2.4086 4.6173 -1.4249
v  1.8224 4.6173 -2.1347
# 148 vertices

vn -0.4804 0.7809 -0.3992
vn -0.6499 0.5162 -0.5578
vn -0.8701 0.4814 0.1054
vn -0.6517 0.7573 0.0427
vn 0.0000 -0.7903 0.6127
vn 0.0000 -1.0000 -0.0000
vn 0.5046 -0.6803 0.5315
vn -0.0246 0.5891 0.8077
vn 0.5642 0.5546 0.6117
vn 0.1003 0.5231 -0.8464
vn 0.0533 -0.7846 -0.6177
vn -0.5364 -0.6857 -0.4921
vn -0.5702 0.5511 0.6093
vn -0.4293 0.7297 0.5321
vn 0.0432 0.7164 -0.6964
vn -0.0387 0.6915 0.7213
vn 0.6182 -0.7845 -0.0490
vn 0.5608 -0.6030 -0.5673
vn 0.5949 0.5547 -0.5817
vn 0.8447 0.5275 -0.0905
vn -0.5636 -0.6503 0.5094
vn 0.4456 0.7594 0.4741
vn -0.6210 -0.7836 0.0171
vn 0.6687 0.7417 -0.0517
vn 0.5395 0.6915 -0.4804
vn -0.6260 0.6855 -0.3717
vn -0.8605 0.5094 -0.0075
vn -0.5947 0.8037 0.0229
vn -0.6534 0.6015 -0.4597
vn -0.4335 0.5621 0.7044
vn -0.3714 0.7334 0.5694
vn -0.2936 0.7984 -0.5257
vn -0.3793 0.5407 -0.7509
vn 0.2349 0.5432 0.8061
vn 0.2043 0.7599 0.6171
vn 0.7586 0.5678 0.3197
vn 0.6150 0.7370 0.2804
vn 0.7840 0.6016 -0.1527
vn 0.7385 0.6610 -0.1334
vn 0.5297 0.5055 -0.6811
vn 0.3660 0.7889 -0.4937
vn -0.6364 0.5606 -0.5298
vn -0.8602 0.5035 0.0812
vn -0.5562 0.8288 0.0607
vn -0.5333 0.7256 -0.4349
vn -0.4983 0.5969 0.6288
vn -0.4216 0.7260 0.5433
vn -0.3123 0.5480 -0.7760
vn -0.2413 0.7483 -0.6179
vn 0.1595 0.5184 0.8401
vn 0.0950 0.8314 0.5475
vn 0.6429 0.6094 0.4640
vn 0.5808 0.7061 0.4051
vn 0.8342 0.5494 0.0479
vn 0.6330 0.7726 0.0489
vn 0.4921 0.4743 -0.7300
vn 0.2905 0.8564 -0.4269
vn -0.5721 0.6027 -0.5563
vn -0.8087 0.5862 0.0490
vn -0.5959 0.8024 0.0323
vn -0.4782 0.7638 -0.4335
vn -0.5650 0.6289 0.5341
vn -0.4703 0.7497 0.4656
vn -0.1141 0.6237 -0.7733
vn -0.0562 0.7478 -0.6615
vn -0.1161 0.5891 0.7997
vn -0.0977 0.8060 0.5839
vn 0.5491 0.5882 0.5937
vn 0.4136 0.7882 0.4556
vn 0.7994 0.5991 0.0447
vn 0.6438 0.7641 0.0407
vn 0.5372 0.5747 -0.6174
vn 0.3426 0.8330 -0.4345
vn -0.6649 0.6809 -0.3070
vn -0.7877 0.5686 0.2373
vn -0.4774 0.8657 0.1506
vn -0.6578 0.6866 -0.3097
vn -0.4380 0.7439 0.5047
vn -0.5363 0.6174 0.5756
vn -0.1328 0.8956 -0.4246
vn -0.2286 0.5335 -0.8143
vn -0.3161 0.5753 0.7544
vn -0.2482 0.7869 0.5650
vn 0.5040 0.5604 0.6573
vn 0.3650 0.8172 0.4460
vn 0.7658 0.5707 -0.2964
vn 0.4678 0.8607 -0.2008
vn 0.3402 0.7030 -0.6245
vn 0.3876 0.6650 -0.6384
vn -0.8021 0.5842 0.1242
vn -0.6932 0.6398 -0.3318
vn 0.0000 1.0000 -0.0000
vn -0.4679 0.5638 0.6806
vn -0.4358 0.6090 -0.6627
vn -0.0638 0.6353 0.7696
vn 0.4907 0.5313 0.6906
vn 0.8079 0.5603 -0.1828
vn 0.2615 0.5767 -0.7740
vn -0.0023 0.9637 0.2671
vn -0.0153 0.9933 0.1143
vn -0.0008 0.9949 0.1005
vn 0.0000 0.9642 0.2652
vn -0.0274 0.9868 -0.1599
vn -0.0515 0.9856 -0.1610
vn -0.0141 0.9146 -0.4041
vn 0.0000 0.9189 -0.3945
vn 0.0000 0.8493 -0.5279
vn 0.2614 0.9593 0.1070
vn 0.1423 0.9897 0.0181
vn 0.1666 0.9837 0.0673
vn 0.2653 0.9570 0.1176
vn -0.1229 0.9829 -0.1370
vn -0.0860 0.9764 -0.1979
vn -0.3809 0.8999 -0.2122
vn -0.4292 0.8830 -0.1902
vn -0.4826 0.8493 -0.2139
vn 0.1669 0.9520 -0.2567
vn 0.0850 0.9926 -0.0863
vn 0.0807 0.9891 -0.1230
vn 0.1964 0.9457 -0.2589
vn -0.0541 0.9851 0.1631
vn -0.0121 0.9830 0.1834
vn -0.2341 0.9079 0.3479
vn -0.2327 0.9229 0.3067
vn -0.3230 0.8494 0.4173
vn -0.3188 0.8513 0.4167
vn -0.2164 0.9457 -0.2424
vn -0.1375 0.9887 -0.0601
vn -0.1367 0.9787 -0.1531
vn 0.0149 0.9809 0.1941
vn -0.0581 0.9638 0.2601
vn 0.2197 0.9147 0.3393
vn 0.3023 0.8910 0.3387
vn 0.3516 0.8493 0.3938
vn -0.2508 0.9451 0.2094
vn -0.1011 0.9882 0.1153
vn -0.1406 0.9831 0.1174
vn -0.2533 0.9445 0.2092
vn 0.1512 0.9865 -0.0635
vn 0.1740 0.9844 -0.0268
vn 0.3383 0.9086 -0.2449
vn 0.3403 0.8973 -0.2810
vn 0.4071 0.8493 -0.3362
# 143 vertex normals

vt 0.7712 0.4753 0.0000
vt 0.7622 0.4846 0.0000
vt 0.6676 0.5006 0.0000
vt 0.6578 0.4915 0.0000
vt 0.6985 0.5824 0.0000
vt 0.7434 0.5700 0.0000
vt 0.7184 0.6070 0.0000
vt 0.6342 0.6090 0.0000
vt 0.7215 0.6517 0.0000
vt 0.8516 0.5268 0.0000
vt 0.7883 0.5578 0.0000
vt 0.7673 0.5330 0.0000
vt 0.6207 0.5515 0.0000
vt 0.6021 0.5523 0.0000
vt 0.8660 0.5207 0.0000
vt 0.6227 0.6206 0.0000
vt 0.7611 0.5997 0.0000
vt 0.7979 0.5865 0.0000
vt 0.8638 0.5895 0.0000
vt 0.8102 0.6405 0.0000
vt 0.6890 0.5540 0.0000
vt 0.7118 0.6606 0.0000
vt 0.7252 0.5402 0.0000
vt 0.8207 0.6486 0.0000
vt 0.8828 0.5895 0.0000
vt 0.7983 0.0716 0.0000
vt 0.8676 0.0760 0.0000
vt 0.8399 0.0972 0.0000
vt 0.7955 0.0938 0.0000
vt 0.7728 0.2934 0.0000
vt 0.9322 0.2738 0.0000
vt 0.9359 0.3244 0.0000
vt 0.7808 0.3301 0.0000
vt 0.9007 0.1186 0.0000
vt 0.8717 0.1313 0.0000
vt 0.7580 0.2622 0.0000
vt 0.9050 0.2181 0.0000
vt 0.9496 0.3017 0.0000
vt 0.9855 0.3063 0.0000
vt 0.9663 0.3272 0.0000
vt 0.9382 0.3241 0.0000
vt 0.5565 0.0941 0.0000
vt 0.6288 0.0037 0.0000
vt 0.6743 0.0176 0.0000
vt 0.6064 0.1177 0.0000
vt 0.9353 0.1571 0.0000
vt 0.9010 0.1646 0.0000
vt 0.7388 0.2326 0.0000
vt 0.8705 0.1659 0.0000
vt 0.9500 0.1938 0.0000
vt 0.9162 0.1991 0.0000
vt 0.7091 0.1988 0.0000
vt 0.8278 0.1255 0.0000
vt 0.9580 0.2216 0.0000
vt 0.9259 0.2289 0.0000
vt 0.6776 0.1696 0.0000
vt 0.7919 0.0948 0.0000
vt 0.9885 0.2529 0.0000
vt 0.9489 0.2567 0.0000
vt 0.6452 0.1426 0.0000
vt 0.7516 0.0580 0.0000
vt 0.2491 0.5400 0.0000
vt 0.2955 0.5342 0.0000
vt 0.2873 0.5680 0.0000
vt 0.2498 0.5717 0.0000
vt 0.5107 0.5506 0.0000
vt 0.3863 0.4676 0.0000
vt 0.4330 0.4417 0.0000
vt 0.5495 0.5313 0.0000
vt 0.3395 0.5533 0.0000
vt 0.3377 0.5789 0.0000
vt 0.4742 0.5792 0.0000
vt 0.3391 0.5107 0.0000
vt 0.2115 0.5445 0.0000
vt 0.2138 0.5738 0.0000
vt 0.4765 0.4208 0.0000
vt 0.5749 0.5166 0.0000
vt 0.4084 0.5518 0.0000
vt 0.3857 0.5796 0.0000
vt 0.8204 0.4750 0.0000
vt 0.7661 0.4732 0.0000
vt 0.7750 0.3545 0.0000
vt 0.8615 0.3627 0.0000
vt 0.4477 0.5815 0.0000
vt 0.4187 0.5974 0.0000
vt 0.7171 0.4779 0.0000
vt 0.7039 0.3613 0.0000
vt 0.0597 0.6123 0.0000
vt 0.0766 0.5780 0.0000
vt 0.1129 0.5993 0.0000
vt 0.1023 0.6182 0.0000
vt 0.6784 0.4850 0.0000
vt 0.6497 0.3670 0.0000
vt 0.1370 0.5381 0.0000
vt 0.1513 0.5743 0.0000
vt 0.6333 0.4937 0.0000
vt 0.5586 0.3841 0.0000
vt 0.9461 0.0812 0.0000
vt 0.9785 0.1007 0.0000
vt 0.9592 0.1116 0.0000
vt 0.9285 0.0932 0.0000
vt 0.2024 0.2324 0.0000
vt 0.3250 0.0540 0.0000
vt 0.3754 0.0710 0.0000
vt 0.2317 0.2423 0.0000
vt 0.9980 0.1245 0.0000
vt 0.9793 0.1318 0.0000
vt 0.1628 0.2220 0.0000
vt 0.2787 0.0412 0.0000
vt 0.9119 0.0663 0.0000
vt 0.8971 0.0780 0.0000
vt 0.2574 0.2519 0.0000
vt 0.4212 0.0895 0.0000
vt 0.6838 0.0111 0.0000
vt 0.7405 0.0019 0.0000
vt 0.7362 0.0191 0.0000
vt 0.6959 0.0253 0.0000
vt 0.1202 0.2120 0.0000
vt 0.2207 0.0269 0.0000
vt 0.7899 0.0126 0.0000
vt 0.7789 0.0277 0.0000
vt 0.0830 0.2061 0.0000
vt 0.1599 0.0155 0.0000
vt 0.8279 0.0263 0.0000
vt 0.8176 0.0408 0.0000
vt 0.0537 0.2021 0.0000
vt 0.1019 0.0084 0.0000
vt 0.8782 0.0410 0.0000
vt 0.8624 0.0544 0.0000
vt 0.0019 0.1968 0.0000
vt 0.0315 0.0033 0.0000
vt 0.3040 0.2709 0.0000
vt 0.4785 0.1160 0.0000
vt 0.4323 0.6227 0.0000
vt 0.4690 0.6371 0.0000
vt 0.4398 0.6501 0.0000
vt 0.4154 0.6396 0.0000
vt 0.4464 0.4119 0.0000
vt 0.2909 0.2823 0.0000
vt 0.3327 0.2620 0.0000
vt 0.4775 0.3975 0.0000
vt 0.4625 0.6577 0.0000
vt 0.4453 0.6653 0.0000
vt 0.4200 0.4260 0.0000
vt 0.2604 0.3010 0.0000
vt 0.3975 0.6197 0.0000
vt 0.4298 0.5998 0.0000
vt 0.3722 0.2415 0.0000
vt 0.5075 0.3842 0.0000
vt 0.2236 0.6072 0.0000
vt 0.2477 0.5764 0.0000
vt 0.2582 0.6006 0.0000
vt 0.2446 0.6161 0.0000
vt 0.6706 0.3404 0.0000
vt 0.6202 0.1766 0.0000
vt 0.6752 0.1718 0.0000
vt 0.7109 0.3353 0.0000
vt 0.2846 0.5699 0.0000
vt 0.2852 0.5951 0.0000
vt 0.6297 0.3476 0.0000
vt 0.5714 0.1839 0.0000
vt 0.3540 0.5873 0.0000
vt 0.3327 0.6052 0.0000
vt 0.5924 0.3565 0.0000
vt 0.4812 0.2056 0.0000
vt 0.3597 0.6016 0.0000
vt 0.3567 0.6189 0.0000
vt 0.5492 0.3703 0.0000
vt 0.4449 0.2187 0.0000
vt 0.0543 0.3247 0.0000
vt 0.0895 0.5393 0.0000
vt 0.0431 0.5400 0.0000
vt 0.0282 0.3254 0.0000
vt 0.9038 0.4634 0.0000
vt 0.9437 0.5030 0.0000
vt 0.8853 0.5191 0.0000
vt 0.0748 0.3220 0.0000
vt 0.1521 0.5348 0.0000
vt 0.9620 0.4462 0.0000
vt 0.9612 0.4740 0.0000
vt 0.0019 0.5394 0.0000
vt 0.0030 0.3260 0.0000
vt 0.8482 0.5058 0.0000
vt 0.1023 0.3190 0.0000
vt 0.1926 0.5276 0.0000
vt 0.8162 0.4894 0.0000
vt 0.1266 0.3143 0.0000
vt 0.2315 0.5206 0.0000
vt 0.8503 0.4260 0.0000
vt 0.1703 0.3000 0.0000
vt 0.3213 0.4909 0.0000
vt 0.9247 0.4175 0.0000
vt 0.1877 0.2921 0.0000
vt 0.3846 0.4631 0.0000
vt 0.2211 0.2760 0.0000
vt 0.4271 0.4380 0.0000
vt 0.0019 0.7137 0.0000
vt 0.3054 0.7180 0.0000
vt 0.3013 0.9549 0.0000
vt 0.0114 0.9759 0.0000
vt 0.5755 0.9575 0.0000
vt 0.5861 0.7470 0.0000
vt 0.8259 0.7488 0.0000
vt 0.8229 0.9783 0.0000
vt 0.9925 0.7373 0.0000
vt 0.9980 0.9798 0.0000
# 206 texture coords

g Palm
usemtl defaultMat
s 1
f 1/1/1 2/2/2 3/3/3 4/4/4 
f 5/5/5 6/6/6 7/7/7 
f 8/8/8 5/5/5 7/7/7 9/9/9 
f 10/10/10 11/11/11 12/12/12 2/2/2 
f 4/4/4 3/3/3 13/13/13 14/14/14 
f 10/10/10 2/2/2 1/1/1 15/15/15 
f 14/14/14 13/13/13 8/8/8 16/16/16 
f 17/17/17 6/6/6 18/18/18 
f 17/17/17 18/18/18 19/19/19 20/20/20 
f 7/7/7 6/6/6 17/17/17 
f 21/21/21 6/6/6 5/5/5 
f 21/21/21 5/5/5 8/8/8 13/13/13 
f 19/19/19 18/18/18 11/11/11 10/10/10 
f 8/8/8 9/9/9 22/22/22 16/16/16 
f 23/23/23 6/6/6 21/21/21 
f 22/22/22 9/9/9 20/20/20 24/24/24 
f 7/7/7 17/17/17 20/20/20 9/9/9 
f 12/12/12 6/6/6 23/23/23 
f 18/18/18 6/6/6 11/11/11 
f 24/24/24 20/20/20 19/19/19 25/25/25 
f 11/11/11 6/6/6 12/12/12 
f 19/19/19 10/10/10 15/15/15 25/25/25 
f 2/2/2 12/12/12 23/23/23 3/3/3 
f 23/23/23 21/21/21 13/13/13 3/3/3 
f 26/26/26 27/27/27 28/28/28 29/29/29 
f 4/30/4 27/31/27 26/32/26 1/33/1 
f 28/28/28 27/27/27 30/34/30 31/35/31 
f 14/36/14 30/37/30 27/31/27 4/30/4 
f 32/38/32 33/39/33 26/40/26 29/41/29 
f 1/42/1 26/43/26 33/44/33 15/45/15 
f 30/34/30 34/46/34 35/47/35 31/35/31 
f 16/48/16 34/49/34 30/37/30 14/36/14 
f 35/47/35 34/46/34 36/50/36 37/51/37 
f 22/52/22 36/53/36 34/49/34 16/48/16 
f 37/51/37 36/50/36 38/54/38 39/55/39 
f 24/56/24 38/57/38 36/53/36 22/52/22 
f 38/54/38 40/58/40 41/59/41 39/55/39 
f 25/60/25 40/61/40 38/57/38 24/56/24 
f 41/59/41 40/58/40 33/39/33 32/38/32 
f 15/45/15 33/44/33 40/61/40 25/60/25 
f 42/62/42 43/63/43 44/64/44 45/65/45 
f 28/66/28 43/67/43 42/68/42 29/69/29 
f 44/64/44 43/63/43 46/70/46 47/71/47 
f 28/66/28 31/72/31 46/73/46 43/67/43 
f 48/74/48 42/62/42 45/65/45 49/75/49 
f 29/69/29 42/68/42 48/76/48 32/77/32 
f 46/70/46 50/78/50 51/79/51 47/71/47 
f 31/80/31 35/81/35 50/82/50 46/83/46 
f 51/79/51 50/78/50 52/84/52 53/85/53 
f 35/81/35 37/86/37 52/87/52 50/82/50 
f 52/88/52 54/89/54 55/90/55 53/91/53 
f 37/86/37 39/92/39 54/93/54 52/87/52 
f 54/89/54 56/94/56 57/95/57 55/90/55 
f 41/96/41 56/97/56 54/93/54 39/92/39 
f 57/95/57 56/94/56 48/74/48 49/75/49 
f 41/96/41 32/77/32 48/76/48 56/97/56 
f 58/98/58 59/99/59 60/100/60 61/101/61 
f 44/102/44 59/103/59 58/104/58 45/105/45 
f 60/100/60 59/99/59 62/106/62 63/107/63 
f 44/102/44 47/108/47 62/109/62 59/103/59 
f 64/110/64 58/98/58 61/101/61 65/111/65 
f 49/112/49 45/105/45 58/104/58 64/113/64 
f 62/114/62 66/115/66 67/116/67 63/117/63 
f 47/108/47 51/118/51 66/119/66 62/109/62 
f 66/115/66 68/120/68 69/121/69 67/116/67 
f 51/118/51 53/122/53 68/123/68 66/119/66 
f 69/121/69 68/120/68 70/124/70 71/125/71 
f 53/122/53 55/126/55 70/127/70 68/123/68 
f 70/124/70 72/128/72 73/129/73 71/125/71 
f 55/126/55 57/130/57 72/131/72 70/127/70 
f 73/129/73 72/128/72 64/110/64 65/111/65 
f 57/132/57 49/112/49 64/113/64 72/133/72 
f 74/134/74 75/135/75 76/136/76 77/137/77 
f 60/138/60 75/139/75 74/140/74 61/141/61 
f 76/136/76 75/135/75 78/142/78 79/143/79 
f 63/144/63 78/145/78 75/139/75 60/138/60 
f 80/146/80 81/147/81 74/134/74 77/137/77 
f 61/141/61 74/140/74 81/148/81 65/149/65 
f 78/150/78 82/151/82 83/152/83 79/153/79 
f 67/154/67 82/155/82 78/156/78 63/157/63 
f 82/151/82 84/158/84 85/159/85 83/152/83 
f 69/160/69 84/161/84 82/155/82 67/154/67 
f 85/159/85 84/158/84 86/162/86 87/163/87 
f 71/164/71 86/165/86 84/161/84 69/160/69 
f 87/163/87 86/162/86 88/166/88 89/167/89 
f 73/168/73 88/169/88 86/165/86 71/164/71 
f 88/166/88 81/147/81 80/146/80 89/167/89 
f 65/149/65 81/148/81 88/169/88 73/168/73 
f 76/170/76 90/171/90 91/172/91 77/173/77 
f 92/174/92 90/175/90 93/176/93 
f 79/177/79 93/178/93 90/171/90 76/170/76 
f 92/174/92 94/179/94 91/180/91 
f 77/173/77 91/172/91 94/181/94 80/182/80 
f 92/174/92 93/176/93 95/183/95 
f 83/184/83 95/185/95 93/178/93 79/177/79 
f 92/174/92 95/183/95 96/186/96 
f 85/187/85 96/188/96 95/185/95 83/184/83 
f 92/174/92 96/186/96 97/189/97 
f 85/187/85 87/190/87 97/191/97 96/188/96 
f 92/174/92 97/189/97 98/192/98 
f 89/193/89 98/194/98 97/191/97 87/190/87 
f 92/174/92 98/192/98 94/179/94 
f 80/195/80 94/196/94 98/194/98 89/193/89 
f 92/174/92 91/180/91 90/175/90 
f 99/197/99 100/198/100 101/199/101 102/200/102 
f 103/201/103 104/202/104 105/203/105 106/204/106 
f 100/198/100 104/202/104 103/201/103 101/199/101 
f 105/203/105 107/205/107 108/206/107 106/204/106 
f 109/197/108 110/198/109 111/199/110 112/200/111 
f 113/201/112 114/202/113 115/203/114 116/204/115 
f 110/198/109 114/202/113 113/201/112 111/199/110 
f 115/203/114 117/205/116 118/206/116 116/204/115 
f 119/197/117 120/198/118 121/199/119 122/200/120 
f 123/201/121 124/202/122 125/203/123 126/204/124 
f 120/198/118 124/202/122 123/201/121 121/199/119 
f 125/203/123 127/205/125 128/206/126 126/204/124 
f 129/197/127 130/198/128 131/199/129 132/200/127 
f 133/201/130 134/202/131 135/203/132 136/204/133 
f 130/198/128 134/202/131 133/201/130 131/199/129 
f 135/203/132 137/205/134 138/206/134 136/204/133 
f 139/197/135 140/198/136 141/199/137 142/200/138 
f 143/201/139 144/202/140 145/203/141 146/204/142 
f 140/198/136 144/202/140 143/201/139 141/199/137 
f 145/203/141 147/205/143 148/206/143 146/204/142 
# 108 polygons - 16 triangles

